<svg width="311" height="487" viewBox="0 0 311 487" fill="none" xmlns="http://www.w3.org/2000/svg">
<g clip-path="url(#clip0)">
<g filter="url(#filter0_d)">
<path d="M17.6002 329.076C16.9724 334.046 17.966 339.282 20.8571 343.968C27.0621 354.017 40.1445 357.638 50.6771 352.285C54.9804 350.097 58.3836 346.722 60.5596 342.55C61.0492 341.61 62.0549 341.059 63.1033 341.207L75.4767 342.926C77.7827 343.247 79.1826 345.663 78.2805 347.808C74.4608 356.897 67.4472 364.412 58.536 368.813C53.9889 371.059 48.812 372.221 43.4339 372.263C29.4413 372.367 14.0995 364.869 5.01152 349.027C-1.80704 337.145 -1.07357 324.665 3.65431 314.427" fill="#D52E27"/>
</g>
<g filter="url(#filter1_d)">
<path d="M59.8166 348.522V389.765C59.8166 400.545 68.4921 409.283 79.2015 409.283H93.2206L83.3991 458.823C83.3991 472.286 100.421 487.007 121.407 487.001C142.397 487.001 159.405 471.841 159.405 458.811L149.573 409.283H196.813L186.996 458.823C186.996 472.286 204.014 487.007 225.002 487.001C245.988 487.001 263.004 471.841 263.004 458.811L253.168 409.283H267.197C277.907 409.283 286.582 400.545 286.582 389.765V323.579L285.451 296.012C284.611 293.599 283.34 291.347 281.588 289.432C270.7 277.5 241.67 251.582 191.998 246.131V235.21C230.532 239.683 257.165 234.333 272.409 229.132C281.991 225.868 289.112 217.705 291.412 207.798L295.711 189.269C301.503 190.612 307.381 186.931 308.749 181.027L310.711 172.574C312.081 166.668 308.424 160.78 302.633 159.436L306.886 141.104C307.889 136.782 307.922 132.31 306.973 127.972C303.031 109.916 285.589 65.2425 208.939 45.2087L218.068 36.3617L223.062 31.3167L208.652 27.9757L218.834 18.9134C218.903 18.9317 218.972 18.9561 219.043 18.9744C224.177 20.1645 229.313 16.9373 230.514 11.7664C231.711 6.59546 228.521 1.43875 223.387 0.248566C218.25 -0.943604 213.114 2.28363 211.915 7.45456C211.385 9.74146 211.716 12.0263 212.692 13.9659L192.222 32.1941L207.529 35.7443L199.981 43.0559C120.214 25.3273 83.1411 58.4549 71.0826 73.1918C68.1874 76.7298 66.1719 80.873 65.1377 85.3351L60.9462 103.405C55.1537 102.06 49.2698 105.738 47.9004 111.645L45.9377 120.098C44.5683 126.002 48.2315 131.894 54.024 133.236L50.1393 149.982C47.6748 160.604 51.1633 171.687 59.266 178.903C73.9433 191.966 101.173 212 140.881 224.541L154.399 227.736V246.131C117.148 250.219 91.5037 265.819 76.418 278.399" fill="#D52E27"/>
</g>
<g opacity="0.149994">
<g opacity="0.149994">
<path opacity="0.149994" d="M119.097 393.673L64.6627 363.716L58.6528 367.778C58.6528 367.778 81.0609 375.62 117.742 393.836C122.017 395.958 114.053 391.041 119.097 393.673Z" fill="black"/>
</g>
</g>
<path d="M143.471 341.319C140.972 335.043 141.183 328.896 141.183 328.896C141.183 309.745 156.815 294.164 175.966 294.164C177.631 294.164 179.247 294.283 180.888 294.517L176.967 298.446C176.608 298.434 176.255 298.425 175.896 298.425C159.096 298.425 145.427 312.094 145.427 328.896C145.427 328.896 145.347 333.056 146.568 337.185H173.231L162.096 358.187L189.046 330.967H152.398L193.56 289.807C188.171 287.362 182.189 286 175.896 286C152.244 286 133 305.242 133 328.896C133 344.359 141.226 357.938 153.532 365.487L166.342 341.328L143.471 341.319Z" fill="white"/>
<path d="M198.49 292.305L185.681 316.461H208.541C208.541 316.461 210.858 321.837 210.858 328.896C210.858 348.047 195.277 363.628 176.126 363.628C174.424 363.628 172.725 363.502 171.048 363.257L174.928 359.34C175.326 359.355 175.727 359.365 176.126 359.365C192.928 359.365 206.6 345.696 206.6 328.896C206.6 328.896 206.597 324.463 205.455 320.607H178.79L189.926 299.604L162.562 326.824H199.308L158.464 367.984C163.853 370.428 169.833 371.791 176.126 371.791C199.779 371.791 219.021 352.549 219.021 328.896C219.021 313.431 210.795 299.853 198.49 292.305Z" fill="white"/>
<g filter="url(#filter2_d)">
<path d="M174.112 345.638L200.043 292.47C205.867 280.524 206.591 266.256 202.046 253.315C197.436 240.238 188.223 230.077 176.091 224.694C166.496 220.427 156.131 219.844 146.105 223.01C134.13 226.79 123.95 235.739 118.186 247.562L102.369 280C101.648 281.479 99.9212 282.027 98.512 281.227L67.5935 263.676C56.3991 257.323 43.1583 255.839 31.2618 259.594C21.1688 262.78 12.8554 269.308 7.24984 278.472C0.215804 289.964 -1.78257 303.708 1.61781 317.165C4.98694 330.477 13.4566 341.813 24.8361 348.275L56.3871 366.194L140.425 414.258L174.112 345.638Z" fill="#F7DE00"/>
</g>
<path d="M24.6835 348.627C31.5508 355.008 41.9839 356.704 50.6757 352.285C54.981 350.097 58.3821 346.724 60.5602 342.55C61.0478 341.61 62.0555 341.059 63.1039 341.207L75.4773 342.926C77.7813 343.247 79.1812 345.663 78.2811 347.808C74.4614 356.897 67.4478 364.412 58.5365 368.813C53.9895 371.059 48.8106 372.221 43.4345 372.263C33.0035 372.343 21.8208 368.195 13.0416 359.515" fill="#D52E27"/>
<path d="M194.325 77.7239C129.595 62.7108 97.1644 78.8613 87.8691 89.0142C85.6545 91.4331 84.151 94.2928 83.4298 97.3961L72.9886 142.379C71.2738 149.773 74.2788 157.617 80.8454 162.855C94.4764 173.721 126.027 192.451 165.567 201.623C210.79 212.111 244.828 209.141 259.928 204.96C267.429 202.884 272.888 197.319 274.489 190.424L285.26 144.018C285.961 141.008 285.886 137.874 285.044 134.813C281.424 121.703 259.934 92.9422 194.325 77.7239Z" fill="#5DC0E5"/>
<g opacity="0.600006">
<g opacity="0.600006">
<path opacity="0.600006" d="M204.672 80.3053C201.283 79.3893 197.77 78.5099 194.111 77.6731C129.284 62.8631 96.8836 79.1314 87.6127 89.3209C85.4063 91.75 83.9089 94.6177 83.1998 97.7252L72.8988 142.775C71.3587 149.507 73.9756 156.13 79.2054 161.421C85.3209 134.003 111.886 95.1072 204.672 80.3053Z" fill="#2492CF"/>
</g>
</g>
<g opacity="0.149994">
<g opacity="0.149994">
<path opacity="0.149994" d="M263.622 297.844L285.561 298.646C275.045 324.042 255.309 353.402 223.032 366.386C221.429 367.032 219.791 367.621 218.13 368.177C218.132 368.149 218.136 368.12 218.138 368.092C218.138 368.092 218.453 363.841 216.634 356.682C214.816 349.52 212.095 344.989 212.095 344.989C211.9 344.685 211.683 344.402 211.482 344.102C211.459 344.073 211.439 344.043 211.419 344.012C236.159 335.236 252.137 314.037 263.622 297.844Z" fill="black"/>
</g>
</g>
<g filter="url(#filter3_d)">
<path d="M260.779 293.094L285.56 298.644C273.134 318.396 252.463 348.651 220.187 361.636C218.584 362.279 216.946 362.868 215.284 363.427C215.286 363.396 215.292 363.37 215.294 363.342C215.294 363.342 215.607 359.091 213.789 351.932C211.972 344.77 209.25 340.239 209.25 340.239C209.057 339.932 208.838 339.65 208.636 339.352C208.616 339.323 208.594 339.293 208.575 339.262C233.314 330.486 249.292 309.285 260.779 293.094Z" fill="#D52E27"/>
</g>
<g opacity="0.149994">
<g opacity="0.149994">
<path opacity="0.149994" d="M146.358 343.638C151.639 335.904 159.611 330.252 168.775 327.868C185.344 323.558 202.292 330.555 211.417 344.014C211.411 344.018 211.466 344.071 211.482 344.103C211.681 344.402 211.901 344.686 212.094 344.989C212.094 344.989 214.814 349.52 216.635 356.681C218.451 363.841 218.138 368.092 218.138 368.092C218.136 368.12 218.132 368.148 218.13 368.177C217.197 384.616 205.844 399.302 189.031 403.679C179.866 406.061 170.105 405.023 161.645 400.862C161.617 400.847 161.592 400.823 161.562 400.807C161.135 400.457 160.747 400.063 160.339 399.696C159.53 398.477 159.544 396.802 160.589 395.605L168.358 386.693C169.035 385.918 170.126 385.682 171.091 386.06C175.351 387.727 179.996 388.012 184.531 386.832C196.835 383.629 203.887 370.488 199.357 358.274C195.439 347.715 183.881 341.823 173.023 344.782C168.586 345.99 164.77 348.48 161.948 351.951C161.314 352.733 160.27 353.05 159.315 352.713L154.049 350.846L148.063 348.728C145.968 347.985 145.113 345.462 146.358 343.638Z" fill="black"/>
</g>
</g>
<g filter="url(#filter4_d)">
<path d="M208.636 339.352C208.838 339.649 209.057 339.933 209.25 340.24C209.25 340.24 211.973 344.771 213.789 351.93C215.607 359.091 215.294 363.342 215.294 363.342C215.292 363.369 215.286 363.397 215.284 363.428C214.352 379.864 203 394.553 186.188 398.925C177.02 401.312 167.262 400.272 158.804 396.11C158.771 396.094 158.747 396.074 158.718 396.055C158.292 395.704 157.904 395.314 157.493 394.945C156.687 393.726 156.701 392.05 157.743 390.854L165.512 381.944C166.189 381.168 167.282 380.931 168.245 381.308C172.506 382.976 177.152 383.258 181.685 382.08C193.989 378.879 201.044 365.737 196.513 353.524C192.596 342.963 181.037 337.073 170.177 340.033C165.742 341.241 161.924 343.729 159.104 347.2C158.47 347.98 157.424 348.299 156.471 347.962L151.205 346.095L145.219 343.977C143.123 343.233 142.267 340.713 143.513 338.887C148.793 331.155 156.768 325.503 165.931 323.118C182.502 318.807 199.449 325.803 208.575 339.263L208.636 339.352Z" fill="#D52E27"/>
</g>
<g opacity="0.149994">
<g opacity="0.149994">
<path opacity="0.149994" d="M196.813 409.283H253.167L254.99 418.451C254.99 418.451 240.979 411.568 196.813 409.283" fill="black"/>
</g>
</g>
<g opacity="0.149994">
<g opacity="0.149994">
<path opacity="0.149994" d="M154.399 227.737C181.458 234.171 191.997 235.211 191.997 235.211V239.486L154.399 227.737Z" fill="black"/>
</g>
</g>
<g opacity="0.149994">
<g opacity="0.149994">
<path opacity="0.149994" d="M93.1946 409.283H149.549L151.408 418.528C151.408 418.528 137.361 411.568 93.1946 409.283" fill="black"/>
</g>
</g>
<g opacity="0.100006">
<g opacity="0.100006">
<path opacity="0.100006" d="M295.712 189.269L297.238 182.689C297.238 182.689 303.14 185.244 309.554 177.562L308.65 181.397C307.169 187.053 301.318 190.609 295.712 189.269Z" fill="black"/>
</g>
</g>
<g opacity="0.100006">
<g opacity="0.100006">
<path opacity="0.100006" d="M57.4256 118.571L56.5296 123.055L54.0244 133.237C51.9663 132.765 50.1357 131.703 48.7175 130.217C46.9946 128.413 45.9767 126.092 45.7186 123.819C47.0759 124.223 51.9317 125.149 57.4256 118.571Z" fill="black"/>
</g>
</g>
<g opacity="0.300003">
<g opacity="0.300003">
<g opacity="0.300003">
<mask id="path-19-inside-1" fill="white">
<path d="M143.066 339.832C143.234 339.3 143.454 338.975 143.513 338.888C148.793 331.156 156.768 325.502 165.931 323.119C182.502 318.805 199.447 325.804 208.575 339.264C208.565 339.266 208.575 339.264 208.575 339.264C233.314 330.486 249.292 309.284 260.779 293.093C251.246 315.056 236.179 330.12 222.21 337.822C219.882 339.103 210.593 342.842 210.593 342.842C210.548 342.832 210.593 342.842 210.593 342.842C198.786 330.435 174.544 312.371 142.999 341.406C142.946 341.14 142.936 340.825 142.95 340.5C142.95 340.5 142.923 340.281 143.066 339.832Z"/>
</mask>
<path d="M143.066 339.832C143.234 339.3 143.454 338.975 143.513 338.888C148.793 331.156 156.768 325.502 165.931 323.119C182.502 318.805 199.447 325.804 208.575 339.264C208.565 339.266 208.575 339.264 208.575 339.264C233.314 330.486 249.292 309.284 260.779 293.093C251.246 315.056 236.179 330.12 222.21 337.822C219.882 339.103 210.593 342.842 210.593 342.842C210.548 342.832 210.593 342.842 210.593 342.842C198.786 330.435 174.544 312.371 142.999 341.406C142.946 341.14 142.936 340.825 142.95 340.5C142.95 340.5 142.923 340.281 143.066 339.832Z" fill="white"/>
<path d="M143.513 338.888L139.368 336.091L139.376 336.08L139.384 336.068L143.513 338.888ZM165.931 323.119L167.191 327.958L167.189 327.958L165.931 323.119ZM208.575 339.264L212.713 336.457L216.941 342.69L209.556 344.167L208.575 339.264ZM208.575 339.264L210.247 343.976L209.908 344.096L209.556 344.167L208.575 339.264ZM260.779 293.093L256.701 290.2L265.366 295.084L260.779 293.093ZM222.21 337.822L224.625 342.2L224.621 342.202L222.21 337.822ZM210.593 342.842L212.46 347.481L211.01 348.064L209.485 347.718L210.593 342.842ZM210.593 342.842L214.215 339.395L225.623 351.384L209.485 347.718L210.593 342.842ZM142.999 341.406L146.385 345.085L139.829 351.119L138.094 342.38L142.999 341.406ZM142.95 340.5L147.914 339.903L147.963 340.31L147.945 340.719L142.95 340.5ZM138.299 338.322C138.672 337.145 139.181 336.369 139.368 336.091L147.658 341.684C147.653 341.691 147.674 341.66 147.697 341.622C147.719 341.586 147.74 341.551 147.757 341.517C147.793 341.45 147.816 341.393 147.832 341.343L138.299 338.322ZM139.384 336.068C145.342 327.344 154.333 320.968 164.673 318.28L167.189 327.958C159.202 330.035 152.245 334.968 147.642 341.708L139.384 336.068ZM164.671 318.28C183.372 313.412 202.445 321.317 212.713 336.457L204.437 342.07C196.449 330.292 181.632 324.198 167.191 327.958L164.671 318.28ZM209.556 344.167C209.555 344.167 209.554 344.167 209.554 344.167C209.554 344.167 209.553 344.167 209.553 344.167C209.552 344.167 209.551 344.167 209.551 344.167C209.551 344.167 209.551 344.167 209.551 344.167C209.551 344.167 209.551 344.167 209.551 344.167C209.551 344.167 209.551 344.167 209.551 344.167C209.551 344.167 209.551 344.167 209.551 344.167C209.551 344.167 209.551 344.167 209.551 344.167C209.551 344.167 209.551 344.167 209.551 344.167C209.551 344.167 203.668 340.245 207.591 334.362C207.591 334.362 207.591 334.362 207.591 334.362C207.591 334.362 207.591 334.362 207.591 334.362C207.591 334.361 207.591 334.362 207.591 334.361C207.594 334.361 207.591 334.361 207.594 334.361C207.594 334.361 207.594 334.361 207.595 334.361C207.595 334.361 207.595 334.361 207.595 334.361C207.597 334.36 207.593 334.361 207.595 334.361C207.595 334.361 207.595 334.361 207.595 334.361C207.595 334.361 207.595 334.361 207.595 334.361C207.595 334.361 207.595 334.361 207.595 334.361C207.595 334.361 207.595 334.361 208.575 339.264C209.556 344.167 209.556 344.167 209.556 344.167C209.556 344.167 209.556 344.167 209.556 344.167C209.556 344.167 209.556 344.167 209.556 344.167C209.556 344.167 209.556 344.167 209.556 344.167C209.556 344.167 209.556 344.167 209.556 344.167C209.556 344.167 209.556 344.167 209.556 344.167C209.556 344.167 209.556 344.167 209.556 344.167C209.556 344.167 209.556 344.167 209.556 344.167C209.555 344.167 209.556 344.166 209.556 344.167C209.555 344.167 209.556 344.167 209.555 344.167C209.555 344.167 209.555 344.167 209.555 344.167C209.555 344.167 209.555 344.167 209.555 344.167C209.554 344.167 209.555 344.167 209.554 344.167C209.553 344.167 209.554 344.167 209.553 344.167C209.553 344.167 209.553 344.167 209.552 344.167C209.552 344.167 209.552 344.167 209.552 344.167C209.552 344.167 209.552 344.167 209.552 344.167C209.552 344.167 209.552 344.167 209.552 344.167C209.552 344.167 209.552 344.167 209.552 344.167C209.552 344.167 209.552 344.167 209.552 344.167C209.552 344.167 209.552 344.167 209.552 344.167C209.552 344.167 209.552 344.167 209.552 344.167C209.552 344.167 209.552 344.167 209.552 344.167C209.552 344.167 209.552 344.167 209.552 344.167C209.552 344.167 209.552 344.167 209.552 344.167C209.552 344.167 209.552 344.167 209.552 344.167C209.551 344.167 209.551 344.167 209.551 344.167C209.551 344.167 209.551 344.167 209.551 344.167C209.551 344.167 209.551 344.167 209.551 344.167C209.551 344.167 209.551 344.167 209.551 344.167C209.551 344.167 209.551 344.167 209.551 344.167C209.551 344.167 209.551 344.167 209.551 344.167C209.551 344.167 209.551 344.167 209.551 344.167C209.551 344.167 209.551 344.167 209.551 344.167C209.551 344.167 209.551 344.167 209.551 344.167V344.167C213.474 338.284 207.591 334.362 207.591 334.362C207.591 334.362 207.591 334.362 207.591 334.362C207.591 334.362 207.591 334.362 207.591 334.362C207.591 334.362 207.591 334.362 207.591 334.362C207.591 334.362 207.591 334.362 207.591 334.362C207.591 334.362 207.591 334.362 207.591 334.362C207.591 334.362 207.591 334.362 207.591 334.362C207.591 334.362 207.591 334.362 207.591 334.361C207.591 334.361 207.591 334.362 207.591 334.361C207.591 334.361 207.59 334.362 207.591 334.361C207.593 334.361 207.591 334.361 207.595 334.361L209.556 344.167ZM206.903 334.551C229.986 326.361 245.165 306.459 256.701 290.2L264.857 295.986C253.418 312.109 236.642 334.61 210.247 343.976L206.903 334.551ZM265.366 295.084C255.413 318.015 239.604 333.941 224.625 342.2L219.796 333.443C232.753 326.299 247.08 312.097 256.193 291.102L265.366 295.084ZM224.621 342.202C223.169 343.002 219.972 344.372 217.461 345.424C216.136 345.979 214.888 346.492 213.971 346.867C213.513 347.054 213.136 347.207 212.874 347.313C212.743 347.366 212.64 347.408 212.57 347.436C212.535 347.45 212.508 347.461 212.489 347.469C212.48 347.473 212.473 347.475 212.468 347.477C212.465 347.478 212.464 347.479 212.462 347.48C212.462 347.48 212.461 347.48 212.461 347.48C212.46 347.48 212.46 347.48 212.46 347.48C212.46 347.481 212.46 347.481 210.593 342.842C208.726 338.204 208.726 338.204 208.726 338.204C208.726 338.204 208.726 338.204 208.726 338.204C208.726 338.204 208.727 338.204 208.727 338.203C208.728 338.203 208.729 338.202 208.731 338.202C208.736 338.2 208.742 338.197 208.75 338.194C208.767 338.187 208.792 338.177 208.826 338.164C208.893 338.137 208.992 338.096 209.119 338.045C209.374 337.942 209.741 337.792 210.19 337.609C211.088 337.242 212.308 336.741 213.596 336.201C216.312 335.063 218.924 333.923 219.8 333.441L224.621 342.202ZM209.485 347.718C209.449 347.71 209.493 347.72 209.466 347.714C209.466 347.714 209.466 347.713 209.465 347.713C209.465 347.713 209.465 347.713 209.465 347.713C209.465 347.713 209.465 347.713 209.465 347.713C209.465 347.713 209.465 347.713 209.465 347.713C209.465 347.713 215.449 343.945 211.681 337.962C211.681 337.962 211.681 337.962 211.681 337.962C211.681 337.962 211.681 337.962 211.681 337.962C211.681 337.962 211.681 337.962 211.681 337.962C211.681 337.962 211.681 337.962 211.681 337.962C211.686 337.963 211.678 337.961 211.684 337.963C211.697 337.966 211.681 337.962 211.694 337.965C211.695 337.965 211.695 337.965 211.695 337.965C211.698 337.966 211.693 337.965 211.696 337.965C211.697 337.966 211.696 337.965 211.697 337.966C211.697 337.966 211.699 337.966 211.699 337.966C211.699 337.966 211.699 337.966 211.699 337.966C211.699 337.966 211.699 337.966 211.699 337.966C211.699 337.966 211.699 337.966 211.699 337.966C211.703 337.967 211.696 337.965 211.7 337.966C211.701 337.966 211.699 337.966 211.7 337.966C211.701 337.967 211.699 337.966 211.701 337.966C211.701 337.966 211.701 337.966 211.701 337.966C211.701 337.966 211.701 337.966 211.701 337.966C211.701 337.966 211.701 337.966 211.701 337.966C211.701 337.966 211.701 337.966 211.701 337.966C211.701 337.966 211.701 337.966 211.701 337.966C211.701 337.966 211.701 337.966 211.701 337.966V337.966C211.701 337.966 211.701 337.966 210.593 342.842C209.485 347.718 209.485 347.718 209.485 347.718L209.485 347.718C209.485 347.718 209.485 347.718 209.485 347.718C209.485 347.718 209.485 347.718 209.485 347.718C209.485 347.718 209.485 347.718 209.485 347.718C209.485 347.718 209.485 347.718 209.485 347.718C209.485 347.718 209.485 347.718 209.485 347.718C209.485 347.718 209.485 347.718 209.485 347.718C209.485 347.718 209.485 347.718 209.485 347.718C209.485 347.718 209.485 347.718 209.485 347.718C209.485 347.718 209.485 347.718 209.485 347.718C209.484 347.718 209.485 347.718 209.484 347.718C209.484 347.718 209.484 347.718 209.484 347.718C209.484 347.718 209.484 347.718 209.484 347.718C209.484 347.718 209.484 347.718 209.484 347.718C209.484 347.718 209.484 347.718 209.484 347.718C209.482 347.717 209.486 347.718 209.483 347.718C209.483 347.718 209.483 347.717 209.482 347.717C209.482 347.717 209.482 347.717 209.482 347.717C209.482 347.717 209.482 347.717 209.482 347.717C209.482 347.717 209.482 347.717 209.482 347.717C209.482 347.717 209.482 347.717 209.481 347.717C209.478 347.716 209.482 347.717 209.479 347.717C209.479 347.717 209.474 347.715 209.473 347.715C209.469 347.714 209.473 347.715 209.468 347.714C209.466 347.714 209.467 347.714 209.466 347.713C209.465 347.713 209.465 347.713 209.465 347.713C209.465 347.713 209.465 347.713 209.465 347.713C205.697 341.73 211.681 337.962 211.681 337.962C211.681 337.962 211.681 337.962 211.681 337.962C211.681 337.962 211.681 337.962 211.681 337.962C211.681 337.962 211.681 337.962 211.682 337.962C211.687 337.963 211.686 337.963 211.701 337.966L209.485 347.718ZM206.971 346.289C201.307 340.337 193.159 333.597 183.159 331.474C173.553 329.435 161.201 331.448 146.385 345.085L139.613 337.727C156.341 322.33 171.884 318.857 185.236 321.692C198.196 324.444 208.072 332.94 214.215 339.395L206.971 346.289ZM138.094 342.38C137.931 341.559 137.932 340.798 137.955 340.282L147.945 340.719C147.943 340.764 147.945 340.767 147.943 340.734C147.942 340.707 147.936 340.598 147.903 340.433L138.094 342.38ZM142.95 340.5C137.986 341.098 137.985 341.096 137.985 341.094C137.985 341.093 137.985 341.091 137.985 341.09C137.984 341.087 137.984 341.084 137.984 341.081C137.983 341.075 137.982 341.07 137.982 341.064C137.98 341.052 137.979 341.041 137.978 341.029C137.975 341.006 137.973 340.982 137.971 340.958C137.966 340.911 137.963 340.862 137.959 340.813C137.953 340.714 137.949 340.611 137.948 340.505C137.946 340.293 137.956 340.069 137.98 339.834C138.027 339.362 138.13 338.857 138.299 338.322L147.832 341.343C147.859 341.257 147.904 341.086 147.929 340.836C147.942 340.711 147.949 340.57 147.948 340.413C147.947 340.335 147.944 340.253 147.939 340.168C147.936 340.125 147.932 340.082 147.928 340.037C147.926 340.015 147.924 339.993 147.922 339.971C147.921 339.959 147.919 339.948 147.918 339.937C147.917 339.931 147.917 339.925 147.916 339.92C147.916 339.917 147.915 339.914 147.915 339.911C147.915 339.91 147.915 339.908 147.915 339.907C147.914 339.905 147.914 339.903 142.95 340.5Z" fill="white" mask="url(#path-19-inside-1)"/>
</g>
</g>
</g>
<g opacity="0.300003">
<g opacity="0.300003">
<path opacity="0.300003" d="M168.063 381.775L168.062 381.774C167.285 381.468 166.419 381.666 165.889 382.272C165.889 382.272 165.889 382.272 165.889 382.272L164.98 383.315C176.995 387.94 187.406 384.173 193.479 377.368C198.59 371.641 200.612 363.797 197.989 356.937C200.193 368.314 193.2 379.602 181.811 382.565L181.811 382.565C177.177 383.769 172.423 383.479 168.063 381.775Z" fill="white" stroke="white"/>
</g>
</g>
</g>
<defs>
<filter id="filter0_d" x="-4.00017" y="314.427" width="86.5574" height="65.8376" filterUnits="userSpaceOnUse" color-interpolation-filters="sRGB">
<feFlood flood-opacity="0" result="BackgroundImageFix"/>
<feColorMatrix in="SourceAlpha" type="matrix" values="0 0 0 0 0 0 0 0 0 0 0 0 0 0 0 0 0 0 127 0"/>
<feOffset dy="4"/>
<feGaussianBlur stdDeviation="2"/>
<feColorMatrix type="matrix" values="0 0 0 0 0 0 0 0 0 0 0 0 0 0 0 0 0 0 0.25 0"/>
<feBlend mode="normal" in2="BackgroundImageFix" result="effect1_dropShadow"/>
<feBlend mode="normal" in="SourceGraphic" in2="effect1_dropShadow" result="shape"/>
</filter>
<filter id="filter1_d" x="41.6504" y="0.000915527" width="273.348" height="495" filterUnits="userSpaceOnUse" color-interpolation-filters="sRGB">
<feFlood flood-opacity="0" result="BackgroundImageFix"/>
<feColorMatrix in="SourceAlpha" type="matrix" values="0 0 0 0 0 0 0 0 0 0 0 0 0 0 0 0 0 0 127 0"/>
<feOffset dy="4"/>
<feGaussianBlur stdDeviation="2"/>
<feColorMatrix type="matrix" values="0 0 0 0 0 0 0 0 0 0 0 0 0 0 0 0 0 0 0.25 0"/>
<feBlend mode="normal" in2="BackgroundImageFix" result="effect1_dropShadow"/>
<feBlend mode="normal" in="SourceGraphic" in2="effect1_dropShadow" result="shape"/>
</filter>
<filter id="filter2_d" x="-4" y="221" width="213" height="201.258" filterUnits="userSpaceOnUse" color-interpolation-filters="sRGB">
<feFlood flood-opacity="0" result="BackgroundImageFix"/>
<feColorMatrix in="SourceAlpha" type="matrix" values="0 0 0 0 0 0 0 0 0 0 0 0 0 0 0 0 0 0 127 0"/>
<feOffset dy="4"/>
<feGaussianBlur stdDeviation="2"/>
<feColorMatrix type="matrix" values="0 0 0 0 0 0 0 0 0 0 0 0 0 0 0 0 0 0 0.25 0"/>
<feBlend mode="normal" in2="BackgroundImageFix" result="effect1_dropShadow"/>
<feBlend mode="normal" in="SourceGraphic" in2="effect1_dropShadow" result="shape"/>
</filter>
<filter id="filter3_d" x="204.575" y="293.094" width="84.985" height="78.3333" filterUnits="userSpaceOnUse" color-interpolation-filters="sRGB">
<feFlood flood-opacity="0" result="BackgroundImageFix"/>
<feColorMatrix in="SourceAlpha" type="matrix" values="0 0 0 0 0 0 0 0 0 0 0 0 0 0 0 0 0 0 127 0"/>
<feOffset dy="4"/>
<feGaussianBlur stdDeviation="2"/>
<feColorMatrix type="matrix" values="0 0 0 0 0 0 0 0 0 0 0 0 0 0 0 0 0 0 0.25 0"/>
<feBlend mode="normal" in2="BackgroundImageFix" result="effect1_dropShadow"/>
<feBlend mode="normal" in="SourceGraphic" in2="effect1_dropShadow" result="shape"/>
</filter>
<filter id="filter4_d" x="138.934" y="321.85" width="80.3807" height="86.3355" filterUnits="userSpaceOnUse" color-interpolation-filters="sRGB">
<feFlood flood-opacity="0" result="BackgroundImageFix"/>
<feColorMatrix in="SourceAlpha" type="matrix" values="0 0 0 0 0 0 0 0 0 0 0 0 0 0 0 0 0 0 127 0"/>
<feOffset dy="4"/>
<feGaussianBlur stdDeviation="2"/>
<feColorMatrix type="matrix" values="0 0 0 0 0 0 0 0 0 0 0 0 0 0 0 0 0 0 0.25 0"/>
<feBlend mode="normal" in2="BackgroundImageFix" result="effect1_dropShadow"/>
<feBlend mode="normal" in="SourceGraphic" in2="effect1_dropShadow" result="shape"/>
</filter>
<clipPath id="clip0">
<rect width="311" height="487" fill="white"/>
</clipPath>
</defs>
</svg>
